<svg id="Layer_1" data-name="Layer 1" xmlns="http://www.w3.org/2000/svg" viewBox="0 0 393.37 397.74">
  <defs>
    <style>
      .cls-1 {
        fill: #cc7e50;
      }

      .cls-2 {
        fill: #c6c5c5;
      }

      .cls-3 {
        fill: #616161;
      }
    </style>
  </defs>
  <path class="cls-3" d="M315.6,120.61c-2.15-.7-3.9,.58-5.7,1.29-70.92,28.27-141.83,56.58-212.74,84.89-6.18,2.47-12.37,4.9-18.48,7.54-2.35,1.01-3.75,.91-5.23-1.48-4.37-7.08-8.94-14.04-13.57-20.96-1.31-1.97-1.3-3.26,.95-4.26,3.38-2.92,7.7-3.83,11.69-5.43,19.31-7.77,38.62-15.52,57.96-23.2,1.98-.79,3.9-1.99,6.21-1.39,19.03-7.47,38.09-14.86,57.08-22.43,59.32-23.65,118.64-47.33,177.88-71.16,4.04-1.63,6.02-1.15,8.21,2.66,3.55,6.19,7.84,11.96,11.64,18.02,.81,1.29,3.09,2.61,1,4.66-18.48,9.56-38.28,15.96-57.47,23.81-6.41,2.62-12.59,5.93-19.44,7.44Z"/>
  <path class="cls-3" d="M56.77,79.59c6.47,.47,12.42-2,18.52-3.42,44.32-10.39,88.62-20.91,132.87-31.57,3.72-.9,5.25,.11,6.82,3.3,3.21,6.56,6.91,12.89,10.29,19.37,.67,1.28,2.48,2.69,.44,4.34-2.29,1.38-4.77,2.15-7.38,2.77-14.5,3.44-29.03,6.74-43.53,10.17-3.09,.73-6.14,.74-9.23,.84-42.25,9.82-84.49,19.65-126.74,29.47-6.96,1.62-13.94,3.16-20.89,4.82-1.71,.41-3.1,.8-4.23-1.18-4.44-7.81-9-15.54-13.48-23.32-.34-.59-.32-1.27,.37-1.73,6.78-3.84,14.52-4.4,21.87-6.2,10.28-2.52,20.55-5.11,30.9-7.34,1.13-.24,2.25-.58,3.42-.32Z"/>
  <path class="cls-2" d="M315.6,120.61c4.66-3.97,10.68-5.1,16.11-7.34,19.37-8.02,38.9-15.63,58.38-23.37,.76-.3,1.61-.36,2.42-.53-21.28,20.83-42.49,41.75-63.87,62.48-21.38,20.73-42.95,41.27-64.38,61.94-.6,.58-3.51,1.32-.51,2.79-.39,2.42-2.56,2.37-4.2,2.82-17.83,4.84-35.55,10.07-53.38,14.9-1.8,.49-3.74,1.82-5.58-.02,16.32-17.3,34.02-33.18,50.86-49.95,19.3-19.22,38.86-38.17,58.3-57.26,2.07-2.03,5.31-3.02,5.86-6.44Z"/>
  <path class="cls-2" d="M310.69,236.53c-6.42,14.77-12.76,29.57-19.27,44.31-13.49,30.56-27.08,61.07-40.62,91.61-3.3,7.43-6.63,14.85-9.8,22.34-1.17,2.76-2.26,3.8-5.47,2.2-6.99-3.47-14.18-6.57-21.41-9.5-3.18-1.29-4.01-2.64-2.53-5.94,17.42-39,34.77-78.03,52-117.11,2.47-5.61,5.52-10.99,7.07-16.99-.07-1.87,1.48-1.98,2.67-2.32,10.95-3.13,22.06-5.69,33.04-8.71,1.41-.39,2.9-.77,4.32,.12Z"/>
  <path class="cls-2" d="M165.56,85.4c12.49-2.94,24.96-5.96,37.47-8.81,7.54-1.72,14.95-4.1,22.68-4.97-10.75,12-23.16,22.3-34.54,33.66-13.02,13-26.66,25.38-39.89,38.18-4.87,4.71-10.62,8.52-14.59,14.16-24.79,9.97-49.59,19.94-74.39,29.89-.44,.18-.98,.1-1.48,.13,3.23-4.71,7.83-8.02,11.93-11.85,13.71-12.81,27.24-25.82,40.88-38.71,17.01-16.07,34.08-32.09,51.04-48.23,.7-.66,4.1-1.48,.88-3.46Z"/>
  <path class="cls-1" d="M56.77,79.59c-1.33,1.86-3.46,1.73-5.36,2.17-16.94,3.9-33.88,7.8-50.82,11.69,11.31-12.62,22.57-25.3,33.96-37.86C50.74,37.73,67.11,20.01,83.23,2.07c2.38-2.65,3.66-2.74,6.17-.32,5.62,5.43,11.44,10.66,17.41,15.71,2.69,2.27,2.66,3.57,.24,6.2-16.46,17.86-32.7,35.91-49,53.91-.53,.58-.86,1.34-1.28,2.02Z"/>
  <path class="cls-3" d="M310.69,236.53c-12.6,3.34-25.19,6.67-37.79,10.02-.77,.21-1.49,.59-2.24,.89-16.08,4.07-32.17,8.11-48.24,12.22-7.8,1.99-7.77,2.03-11.66-4.93-3-5.37-6.11-10.67-9.03-16.08-.7-1.3-2.52-2.48-1.15-4.38,21.05-5.9,42.11-11.79,63.16-17.69,9.29-2.53,18.61-4.95,27.85-7.66,2.81-.82,4.58-.4,6.41,1.95,3.58,4.58,7.15,9.26,11.33,13.25,4.25,4.05,4.64,7.87,1.34,12.42Z"/>
</svg>